<svg xmlns="http://www.w3.org/2000/svg" xmlns:xlink="http://www.w3.org/1999/xlink" width="301" height="52" viewBox="0 0 301 52"><defs><style>.a,.e{fill:#fff;}.a{stroke:#e8e8e8;}.b{clip-path:url(#a);}.c{mix-blend-mode:multiply;isolation:isolate;}.d{fill:#eff4f3;}.d,.e,.f{stroke:#eff4f3;stroke-linecap:round;stroke-linejoin:round;}.d,.f{stroke-width:3px;}.e{stroke-width:4px;}.f{fill:#f0f4f3;}</style><clipPath id="a"><rect class="a" width="301" height="52" rx="16" transform="translate(37 342)"/></clipPath></defs><g class="b" transform="translate(-37 -342)"><g class="c" transform="translate(164.072 4162.745)"><path class="d" d="M11.772,39.121a18.34,18.34,0,0,0,2.6,9.539,19.755,19.755,0,0,0,7.052,7.052,18.637,18.637,0,0,0,9.613,2.635,19,19,0,0,0,9.687-2.635,19.67,19.67,0,0,0,7.126-7.052,18.472,18.472,0,0,0,2.635-9.539,20.97,20.97,0,0,0-1.93-7.943,46.055,46.055,0,0,0-4.677-8.537c-1.633-2.116-3.563-4.454-5.79-6.978s-6.124-6.421-7.015-7.312L26.321,13.14a57.628,57.628,0,0,0-6.644,7.72,56.912,56.912,0,0,0-5.53,9.465A20.611,20.611,0,0,0,11.772,39.121Z" transform="translate(112.472 -3819.352)"/><g transform="translate(90.013 -3811)"><path class="e" d="M11.772,39.121a18.34,18.34,0,0,0,2.6,9.539,19.755,19.755,0,0,0,7.052,7.052,18.637,18.637,0,0,0,9.613,2.635,19,19,0,0,0,9.687-2.635,19.67,19.67,0,0,0,7.126-7.052,18.472,18.472,0,0,0,2.635-9.539,20.97,20.97,0,0,0-1.93-7.943,46.055,46.055,0,0,0-4.677-8.537c-1.633-2.116-3.563-4.454-5.79-6.978s-6.124-6.421-7.015-7.312L26.321,13.14a57.628,57.628,0,0,0-6.644,7.72,56.912,56.912,0,0,0-5.53,9.465A20.611,20.611,0,0,0,11.772,39.121Z" transform="translate(4.998 -8.352)"/><path class="f" d="M11.772,39.121a18.34,18.34,0,0,0,2.6,9.539,19.755,19.755,0,0,0,7.052,7.052,18.637,18.637,0,0,0,9.613,2.635,19,19,0,0,0,9.687-2.635,19.67,19.67,0,0,0,7.126-7.052,18.472,18.472,0,0,0,2.635-9.539,20.97,20.97,0,0,0-1.93-7.943,46.055,46.055,0,0,0-4.677-8.537c-1.633-2.116-3.563-4.454-5.79-6.978s-6.124-6.421-7.015-7.312L26.321,13.14a57.628,57.628,0,0,0-6.644,7.72,56.912,56.912,0,0,0-5.53,9.465A20.611,20.611,0,0,0,11.772,39.121Z" transform="translate(-11.772 -8.352)"/></g></g></g></svg>